<svg xmlns="http://www.w3.org/2000/svg" width="108.361" height="21" viewBox="0 0 108.361 21">
  <g id="Group_327" data-name="Group 327" transform="translate(-459.418 -73.279)">
    <path id="Path_234" data-name="Path 234" d="M459.418,74.111h5.059c6.681,0,9.161,3.906,9.161,8.1s-2.579,8.13-8.547,8.13h-.737v4h-4.937Zm5.919,11.421a3.307,3.307,0,1,0,0-6.607h-.982v6.607Z" transform="translate(0 -0.439)" fill="#fff"/>
    <path id="Path_235" data-name="Path 235" d="M501.635,94.35l-1.695-4.1a9.863,9.863,0,0,1-1.523.1h-.835v4.028h-4.937V74.111h5.059c6.681,0,9.161,3.906,9.161,8.1a8,8,0,0,1-2.579,6.19l3.07,5.944Zm-3.07-8.818a3.307,3.307,0,1,0,0-6.607h-.982v6.607Z" transform="translate(-17.534 -0.439)" fill="#fff"/>
    <path id="Path_236" data-name="Path 236" d="M535.5,94.279a10.5,10.5,0,1,1,10.488-10.512A10.429,10.429,0,0,1,535.5,94.279Zm0-16.039a5.539,5.539,0,1,0,5.526,5.527A5.463,5.463,0,0,0,535.5,78.24Z" transform="translate(-34.601)" fill="#fff"/>
    <path id="Path_237" data-name="Path 237" d="M571.529,84.011a10.405,10.405,0,0,1,10.512-10.316v4.961a5.358,5.358,0,1,0,0,10.709V94.3A10.385,10.385,0,0,1,571.529,84.011Z" transform="translate(-59.159 -0.22)" fill="#09f"/>
    <path id="Path_238" data-name="Path 238" d="M609.849,91.871h-7.811l-.835,2.506h-5.182l7.368-20.214H608.5l7.246,20.214h-5.06Zm-1.277-3.856-2.628-7.982-2.628,7.982Z" transform="translate(-72.084 -0.466)" fill="#09f"/>
    <path id="Path_239" data-name="Path 239" d="M639.493,74.163h6.558l5.158,13.73,5.084-13.73H662.8V94.377h-4.937V82.539L653.37,94.377h-4.4L644.43,82.391V94.377h-4.937Z" transform="translate(-95.023 -0.466)" fill="#09f"/>
  </g>
</svg>
